# xmcd
#
# Track frame offsets:
# 150
# 135761
# 266694
#
# Disc length: 4374 seconds
#
#
# Revision: 0
# Processed by: cddbd v1.5.2PL0 Copyright (c) Steve Scherf et al.
# Submitted via: FreeRIP 2.943 
#
DISCID=1e111403
DTITLE=Nick Millevoi and others - shredfest v
DYEAR=2009
DGENRE=Noise
TTITLE0=i
TTITLE1=ii
TTITLE2=iii
EXTD=recorded live by brendan krivda at shredfest v at the rotunda in philadelphia, pa may 3, 2009
EXTT0=
EXTT1=
EXTT2=
PLAYORDER=
